<svg xmlns="http://www.w3.org/2000/svg" width="800" height="1000" viewBox="0 0 800 1000" fill="none"><g clip-path="url(#clip0_656_109)"><path fill-rule="evenodd" clip-rule="evenodd" d="M225 359.377C225.067 349.815 232.797 342.076 242.36 342H557.64C567.23 342 575 349.787 575 359.377V639.623C574.933 649.185 567.203 656.924 557.64 657H242.36C232.77 656.991 225 649.213 225 639.623V359.377ZM540.002 377.001H260.002V622.001L422.612 459.355C429.446 452.524 440.523 452.524 447.357 459.355L540.002 552.175V377.001ZM294.998 446.999C294.998 466.329 310.668 481.999 329.998 481.999C349.328 481.999 364.998 466.329 364.998 446.999C364.998 427.669 349.328 411.999 329.998 411.999C310.668 411.999 294.998 427.669 294.998 446.999Z" fill="#B4BDC6"></path></g><defs><clipPath id="clip0_656_109"><rect width="800" height="1000" fill="white"></rect></clipPath></defs></svg>